<svg version="1.1" id="Layer_1" xmlns="http://www.w3.org/2000/svg" x="0" y="0" viewBox="0 0 512 512" style="enable-background:new 0 0 512 512" xml:space="preserve"><style>.st0{fill:#1c299c}</style><path class="st0" d="M269 230.4c-1.2 0-2.5-.3-3.6-.8l-145.1-68.3c-3-1.4-4.9-4.4-4.9-7.7s1.9-6.3 4.9-7.7l145.1-68.3c2.3-1.1 5-1.1 7.3 0l145.1 68.3c3 1.4 4.9 4.4 4.9 7.7s-1.9 6.3-4.9 7.7l-145.1 68.3c-1.2.5-2.5.8-3.7.8zm-125-76.8 125 58.8 125-58.8-125-58.8-125 58.8z"/><path class="st0" d="M269 298.7c-1.3 0-2.6-.3-3.8-.9l-102.4-51.2c-2.9-1.5-4.7-4.4-4.7-7.6v-65.3c0-2.9 1.5-5.6 4-7.2 2.5-1.6 5.6-1.7 8.2-.5l98.8 46.5 98.8-46.5c2.6-1.2 5.7-1 8.2.5 2.5 1.6 4 4.3 4 7.2V239c0 3.2-1.8 6.2-4.7 7.6L273 297.8c-1.4.6-2.7.9-4 .9zm-93.9-65 93.9 46.9 93.9-46.9v-46.5l-90.2 42.5c-2.3 1.1-5 1.1-7.3 0l-90.2-42.5v46.5zm239-71.6H269c-4.7 0-8.5-3.8-8.5-8.5s3.8-8.5 8.5-8.5h145.1c4.7 0 8.5 3.8 8.5 8.5s-3.8 8.5-8.5 8.5z"/><path class="st0" d="M414.1 238.9c-4.7 0-8.5-3.8-8.5-8.5v-76.8c0-4.7 3.8-8.5 8.5-8.5s8.5 3.8 8.5 8.5v76.8c0 4.7-3.8 8.5-8.5 8.5zM269 179.2c-4.7 0-8.5-3.8-8.5-8.5v-34.1c0-4.7 3.8-8.5 8.5-8.5s8.5 3.8 8.5 8.5v34.1c0 4.7-3.8 8.5-8.5 8.5z"/><path class="st0" d="M397 264.5c-1.6 0-3.3-.5-4.7-1.4-3.9-2.6-5-7.9-2.4-11.8l17.1-25.6c2.6-3.9 7.9-5 11.8-2.4 3.9 2.6 5 7.9 2.4 11.8l-17.1 25.6c-1.6 2.5-4.4 3.8-7.1 3.8z"/><path class="st0" d="M431.1 264.5c-2.8 0-5.5-1.3-7.1-3.8l-17-25.6c-2.6-3.9-1.6-9.2 2.4-11.8 3.9-2.6 9.2-1.6 11.8 2.4l17.1 25.6c2.6 3.9 1.6 9.2-2.4 11.8-1.5 1-3.1 1.4-4.8 1.4zM269 256c-4.7 0-8.5-3.8-8.5-8.5v-25.6c0-4.7 3.8-8.5 8.5-8.5s8.5 3.8 8.5 8.5v25.6c0 4.7-3.8 8.5-8.5 8.5z"/><path class="st0" d="M516.5 332.8h-495c-4.7 0-8.5-3.8-8.5-8.5V42.7C13 23.9 28.3 8.5 47.1 8.5h443.7c18.8 0 34.1 15.3 34.1 34.1v281.6c.1 4.8-3.7 8.6-8.4 8.6zM30.1 315.7H508v-273c0-9.4-7.7-17.1-17.1-17.1H47.1c-9.4 0-17.1 7.7-17.1 17.1l.1 273z"/><path class="st0" d="M490.9 401.1H47.1C28.3 401.1 13 385.8 13 367v-42.7c0-4.7 3.8-8.5 8.5-8.5h494.9c4.7 0 8.5 3.8 8.5 8.5V367c.1 18.7-15.2 34.1-34 34.1zM30.1 332.8v34.1c0 9.4 7.7 17.1 17.1 17.1h443.7c9.4 0 17.1-7.7 17.1-17.1v-34.1H30.1z"/><path class="st0" d="M294.6 366.9h-51.2c-4.7 0-8.5-3.8-8.5-8.5s3.8-8.5 8.5-8.5h51.2c4.7 0 8.5 3.8 8.5 8.5s-3.8 8.5-8.5 8.5zm187.7-34.1H55.7c-4.7 0-8.5-3.8-8.5-8.5V51.2c0-4.7 3.8-8.5 8.5-8.5h426.7c4.7 0 8.5 3.8 8.5 8.5v273.1c0 4.7-3.9 8.5-8.6 8.5zM64.2 315.7h409.6v-256H64.2v256zm315.7 187.8H158.1c-14.1 0-25.6-11.5-25.6-25.6 0-14.1 11.5-25.6 25.6-25.6H380c14.1 0 25.6 11.5 25.6 25.6-.1 14.1-11.6 25.6-25.7 25.6zm-221.8-34.2c-4.7 0-8.5 3.8-8.5 8.5s3.8 8.5 8.5 8.5H380c4.7 0 8.5-3.8 8.5-8.5s-3.8-8.5-8.5-8.5H158.1z"/><path class="st0" d="M362.9 469.3H175.1c-4.7 0-8.5-3.8-8.5-8.5s3.8-8.5 8.5-8.5c28.3 0 42.7-20.1 42.7-59.7 0-4.7 3.8-8.5 8.5-8.5h85.3c4.7 0 8.5 3.8 8.5 8.5 0 39.6 14.4 59.7 42.7 59.7 4.7 0 8.5 3.8 8.5 8.5s-3.7 8.5-8.4 8.5zm-146.2-17h104.6c-10.5-11.6-16.7-29-17.9-51.2h-68.7c-1.3 22.2-7.5 39.5-18 51.2z"/></svg>