<svg version="1.1" id="Layer_1" xmlns="http://www.w3.org/2000/svg" x="0" y="0" viewBox="0 0 479 479" style="enable-background:new 0 0 479 479" xml:space="preserve"><style>.st0{fill:#000083}</style><path class="st0" d="M483.2 226.8c.3-.7.4-1.5.5-2.3 0-.8-.1-1.7-.4-2.5l-.6-1.7c-6.5-63.1-37.8-121-87-160.9-3.5-2.9-7.2-5.5-10.9-8.1-.2-.2-.3-.4-.5-.5-.2-.1-.4-.1-.5-.2-40.7-29.2-89.5-44.9-139.5-45-2.1 0-4.1 0-5.7.2-26.7.5-53.1 5.6-78.1 15-21.7-16.9-51.1-20-75.8-7.9s-40.3 37-40.3 64.5c.5 9.1 2.6 18.1 6.3 26.5-8.2 11.1-15.3 23-21.5 35.4l-.3.6C-27.7 257 19.4 398 135.2 457.5 250.9 517 393 473.3 455.3 359c17.1-31.4 26.8-66.3 28.4-102.1.2-3.9.3-7.8.3-11.7 0-6.2-.3-12.3-.8-18.4zm-23.2-41c-1-.9-2-1.9-3-2.8-10.4-7.9-22.3-13.8-34.9-17.4-11.5-2.9-23.5-3-35-.4-9.8 2.2-20 2.3-29.9.1-19.1-4.2-34.2-7.5-42.2-20.3-11.5-18.4-6.1-44.2 6-53.3 4-2.8 8.9-3.8 13.7-2.9 8.5.7 17-.7 24.8-4.2 8.3-3.9 15.6-9.5 21.6-16.4 1.5 1.2 3.1 2.2 4.6 3.4 35.9 29.4 61.9 69.3 74.3 114.2zM116.3 21.4c30.9.1 55.9 25.1 55.9 55.9 0 23.9-35.9 78.6-55.9 106.4-19-25.7-35.5-53.1-49.3-81.9-3.8-7.7-6-16-6.6-24.5 0-30.8 25-55.8 55.9-55.9zM20.4 245.2c0-14.9 1.5-29.8 4.5-44.4.9 11.1 2.3 21 3.6 29.6 5 32.8 9.6 63.7 33.8 91.9 10.1 11.9 27 31.8 53.2 34.7 26.2 2.9 58.9-12.1 68.4-16.8l3.6-1.8c5-3.2 10.8-5 16.7-5.3 10.1.9 19.5 5.7 26.2 13.4 13.6 15.1 17.1 40.3 7.4 54-3.1 4.1-7.4 7-12.3 8.5-8.4 2.8-15.5 8.5-20 16-6.8 12.2-8 26.8-3.5 40C96.7 444.5 20.6 352.5 20.4 245.2zM244.2 469c-7.7 0-15.4-.4-23.1-1.2-.7-.8-1.3-1.7-1.8-2.6-5.4-10-5.5-22-.2-32.1 2.9-4.6 7.4-7.9 12.6-9.4 7.6-2.6 14.3-7.5 19.1-14 13.9-19.5 10-53.4-8.6-73.9-9.6-11-23.3-17.7-37.9-18.6h-.3c-8.4.3-16.6 2.7-23.8 7.1l-3.4 1.7c-17.5 8.6-42.3 17.1-59.5 15.2-19.8-2.2-33.6-18.5-42.8-29.2-21.2-24.8-25.3-52.2-30.1-83.9-5.1-27.1-5.3-55-.6-82.2 4.3-8.7 9.1-17.1 14.5-25.1.3.5.6 1.1.8 1.6.5 1 1 2 1.6 3l2.4 4.5c.6 1 1.1 2 1.7 3.1.8 1.5 1.7 3 2.6 4.6.6 1 1.2 2 1.7 3l2.7 4.5 1.8 3c.9 1.6 1.9 3.1 2.8 4.6.5.9 1.1 1.8 1.6 2.6 1.2 1.9 2.4 3.7 3.5 5.6l.9 1.5c1.5 2.3 2.9 4.5 4.3 6.6.5.8 1.1 1.6 1.6 2.4.9 1.3 1.8 2.6 2.6 3.9l1.9 2.8 2.1 3 1.9 2.8c.6.9 1.2 1.7 1.8 2.5.6.8 1.2 1.7 1.8 2.5.6.8 1 1.4 1.5 2.1l1.6 2.2 1.3 1.8 1.3 1.8 1 1.4 1 1.3.6.8c.7 1 1.3 1.7 1.4 1.9 1.5 2 3.9 3.2 6.4 3.2s4.9-1.2 6.4-3.2c6.7-8.9 65.6-87.8 65.6-124.7 0-2.3-.1-4.7-.4-7l-.3-2.1c-.2-1.6-.5-3.2-.8-4.8-.2-.8-.3-1.5-.5-2.3-.4-1.6-.8-3.2-1.3-4.8-.2-.6-.4-1.3-.6-1.9-.7-2.1-1.5-4.3-2.4-6.3l-.6-1.2c-.8-1.7-1.6-3.3-2.5-4.9-.4-.7-.8-1.4-1.3-2.1-.8-1.3-1.6-2.5-2.4-3.7l-1.5-2.1c-.3-.4-.5-.7-.8-1.1 16.6-5.6 33.9-9.2 51.4-10.6C212 46.1 208 67.9 212.6 87.3c3.5 13 10.1 25 19.2 35 7.5 9.3 12.9 16 12.6 27-.7 23.2-26.9 42.5-36.8 49.8-13 9.4-27.5 16.4-42.9 20.7-14.5 4.7-27 8.8-31.8 23.1-4.7 18.9 3 38.7 19.4 49.3 9.8 5.3 21.3 6.3 31.8 2.8 11.6-2.7 23.5-3.3 35.3-1.7 15.2 2.2 28.3 4 34.5 12.7 3.7 5.2 3.5 10.6 2.8 20.4-1.6 13.9-.2 28.1 4.1 41.4 3.6 10.9 9.2 27.4 22.4 29.4.9.1 1.7.2 2.6.2 9.4 0 15.1-8.3 21.1-17 2.7-3.8 5.6-8 9.1-12.2 16.4 26.6 33.2 48.8 33.9 49.8 1.5 2 3.9 3.2 6.4 3.2 2.5 0 4.9-1.2 6.4-3.2 17.3-23.2 33.1-47.6 47.3-72.8 9.8 2.8 19.2 7.1 27.8 12.7-40.2 68.7-113.9 111.2-193.6 111.1zm149.2-217.5c11.9 10.6 18.7 25.7 18.7 41.7 0 5.7-2.3 17.1-13.4 38.8-12.7 23.5-26.9 46-42.5 67.6-7.5-10.5-20.5-29.1-32-48.6-6.5-10.7-12.2-21.8-17.3-33.3-3.8-7.7-6-16-6.6-24.5 0-30.9 25.1-55.9 55.9-55.9 1.7 0 3.4.1 5.1.2 11.9 1.1 23.2 6 32.1 14zm74.3 4.6c-1.4 30.4-9 60.2-22.5 87.5-8.8-5.5-18.2-9.9-28.1-13.1 6.2-11.6 9.9-24.3 10.9-37.3-.1-27.4-15.7-52.5-40.3-64.6l-.5-.2c-1.8-.9-3.6-1.7-5.5-2.4-1.3-.5-2.6-.9-3.9-1.3-.8-.2-1.5-.5-2.3-.8-2.1-.6-4.2-1.1-6.3-1.5h-.1c-1.3-.2-2.6-.4-3.9-.5-20.6-2.8-41.3 3.4-56.9 17.1-15.6 13.7-24.5 33.5-24.3 54.2.6 10.7 3.3 21.1 7.9 30.7 4.5 10.2 9.5 20.1 15.1 29.8-5 5.5-9.6 11.3-13.7 17.5-2.2 3.8-5 7.2-8.2 10.1-1.6-.2-4.6-3.7-9.6-18.6-3.7-11.4-4.8-23.4-3.4-35.2 2.1-10.6 0-21.7-5.7-30.8-10.2-14.3-28-16.8-45.4-19.2-13.5-1.8-27.2-1.2-40.4 1.8-10.2 2-15 2.7-20.4-.7-9.9-6.8-14.9-18.8-12.6-30.6 2.1-6.4 8.5-8.7 21.6-13 17-4.9 33.1-12.7 47.5-23.1 11.6-8.5 42.4-31.2 43.3-62.1.5-16.9-8-27.4-16.1-37.5-7.6-8.1-13.1-17.9-16-28.6-4.2-17.8 1-38.7 15.3-62.1h.9c44 .1 87 13.1 123.7 37.4-4.2 4.7-9.4 8.6-15.1 11.3-5.6 2.4-11.7 3.4-17.7 2.8-8.4-1-16.9 1.1-23.8 6.1-18.1 13.6-26.2 48.4-10 74.6 11.6 18.5 31.4 22.8 53 27.5 11.6 2.5 23.7 2.4 35.3-.2 9.3-2.2 19.1-2.2 28.4.1 10.5 3 20.3 7.9 29 14.5 9 7.5 15.9 17.3 19.8 28.3.7 7.1 1.1 14.1 1.1 21.3.2 3.5.1 7.1-.1 10.8z"/><path class="st0" d="M116.3 101.4c17.7 0 32-14.3 32-32s-14.3-32-32-32-32 14.3-32 32c.1 17.7 14.4 32 32 32zm0-48c8.8 0 16 7.2 16 16s-7.2 16-16 16-16-7.2-16-16 7.2-16 16-16zm207.8 231.8c0 17.7 14.3 32 32 32s32-14.3 32-32-14.3-32-32-32c-17.6 0-32 14.3-32 32zm48 0c0 8.8-7.2 16-16 16s-16-7.2-16-16 7.2-16 16-16 16 7.2 16 16z"/></svg>