<svg id="Layer_1" data-name="Layer 1" xmlns="http://www.w3.org/2000/svg" viewBox="0 0 1291.84 1284.6"><defs><style>.cls-2{fill:#ed5762}.cls-3{fill:#bbcee0}.cls-6{fill:#2075bc}.cls-7{fill:#9e4e36}.cls-8{fill:#fff}.cls-9{fill:#a7bcce}.cls-12{fill:#0f4564}.cls-13{fill:#0b3c57}.cls-14{fill:#215f78}.cls-15{fill:#06314b}.cls-16{fill:#2c3493}.cls-18{fill:#f4c6a3}.cls-22{fill:#71c058}.cls-30{fill:#f5d118}.cls-32{fill:#eef0f9}.cls-33{opacity:.4}.cls-34{fill:#8f55a2}</style></defs><path d="m654.2 426.13-100.59-58a9.42 9.42 0 0 0-10.08.39l-22 12.72 10.25 13.94 3.85 4.41v99.66a16.52 16.52 0 0 0 8.27 14.37l75.31 43.58.77 4.19 15.37 21.54L658.94 569a7.53 7.53 0 0 0 3.64-6.45V441.34a17.31 17.31 0 0 0-8.38-15.21z" transform="translate(-211.72 -214.2)" style="fill:#f3767a"/><path class="cls-2" d="M630.68 440 529 381.23a7.44 7.44 0 0 0-10.1 2.94 7.53 7.53 0 0 0-.92 3.51v121.86a16.55 16.55 0 0 0 8.32 14.38l101.81 58.89a7.66 7.66 0 0 0 10.43-2.81 7.75 7.75 0 0 0 1-3.76V455a17.29 17.29 0 0 0-8.86-15z" transform="translate(-211.72 -214.2)"/><path class="cls-3" d="M635.42 582.81z" transform="translate(-211.72 -214.2)"/><path d="M639.16 576.2V455a17.63 17.63 0 0 0-1.15-5.84l23.58-13.61a16.48 16.48 0 0 1 1.1 5.51v121.2a7.5 7.5 0 0 1-3.64 6.44l-23.41 13.78a7.49 7.49 0 0 0 3.52-6.28z" transform="translate(-211.72 -214.2)" style="fill:#da3a5b"/><path d="M540.28 1339c-20.39 0-13.72-15.32-13.72-15.32-30.19-9.2-45.07-4.07-45.07-4.07a139 139 0 0 0-4.79 49.25c0 3.14 2.21 5.07 5.18 6.22 16.25 6 31.07 10 61.32 7.11 22.31-2.2 45.89-22.81 40.54-44.07-3.36-13.12-22.8.64-43.46.88z" transform="translate(-211.72 -214.2)" style="fill:#943f32"/><path class="cls-6" d="M531.52 1147.48c-5.95-7.76-16.2-14.37-33.06-9.91l-182.13 35.15 6.84 46.77a72.6 72.6 0 0 0 76.74 22.86 283.61 283.61 0 0 0 80.54-36.8l-6.28 129.24a72.87 72.87 0 0 0 54-6.5c4.24-2.59 8.21-127.09 9.53-159a29.26 29.26 0 0 0-6.18-21.81z" transform="translate(-211.72 -214.2)"/><path class="cls-7" d="M627.7 1376.33c-21.15 0-14.21-15.92-14.21-15.92-31.4-9.53-46.83-4.24-46.83-4.24a146.29 146.29 0 0 0-5 51.12 6.94 6.94 0 0 0 5.51 6.5c16.91 6.28 32.28 10.41 63.68 7.38 23.14-2.26 47.66-23.69 42.09-45.72-3.59-13.66-23.81.66-45.24.88z" transform="translate(-211.72 -214.2)"/><path class="cls-3" d="m208.96 1110.73-156.35-90.4v22.04l156.4 90.12-.05-21.76z"/><path class="cls-8" d="m194.74 938.68-142.13 81.65 156.35 90.4 142.3-81.75-156.52-90.3z"/><path class="cls-9" d="m351.26 1028.98-142.3 81.75.05 21.76 142.25-82.3v-21.21z"/><path d="M618.61 1177.45c-6.17-8-16.52-14.93-34.43-10.3l-189.12 36.47 7.21 48.54a75.39 75.39 0 0 0 79.67 23.74 293.63 293.63 0 0 0 83.62-38.23l-6.39 134a75.31 75.31 0 0 0 56.08-6.72c4.47-2.7 8.6-131.94 9.92-165.27a30.34 30.34 0 0 0-6.56-22.23z" transform="translate(-211.72 -214.2)" style="fill:#2c88c6"/><path d="m280.69 903.87 322.94-187.3a44 44 0 0 1 44.07 0l508.71 294.29a19.44 19.44 0 0 1 0 33.71l-315.73 183.29a52.5 52.5 0 0 1-52.61 0L280.53 934.23a17.41 17.41 0 0 1 .16-30.36z" transform="translate(-211.72 -214.2)" style="fill:#e8ebf5"/><path class="cls-9" d="m280.75 934.06 507.54 293.64a52.5 52.5 0 0 0 52.61 0l315.73-183.29a19.34 19.34 0 0 0 9.69-16.53v24.57a19.17 19.17 0 0 1-9.64 16.53L840.9 1252.16a52.5 52.5 0 0 1-52.61 0L280.75 958.52a17.33 17.33 0 0 1-8.75-15.26v-24.13a17.16 17.16 0 0 0 8.75 14.93z" transform="translate(-211.72 -214.2)"/><path class="cls-3" d="m280.75 934.06 507.54 293.64a52.08 52.08 0 0 0 24 6.88v24.35a52.85 52.85 0 0 1-24-6.88L280.75 958.41a17.33 17.33 0 0 1-8.75-15.26V919a17.17 17.17 0 0 0 8.75 15.06z" transform="translate(-211.72 -214.2)"/><path class="cls-12" d="M519.29 971.64 574.1 940a8.3 8.3 0 0 1 8.32 0l169.29 97.89a3.68 3.68 0 0 1 0 6.34l-53.49 30.9a9.82 9.82 0 0 1-9.86 0l-169.07-97.77a3.33 3.33 0 0 1-1.21-4.57 2.91 2.91 0 0 1 1.21-1.15z" transform="translate(-211.72 -214.2)"/><path class="cls-13" d="m519.29 977.36 169.07 97.73a9.82 9.82 0 0 0 9.86 0l53.49-30.9a3.64 3.64 0 0 0 1.82-3.2v6.5a3.83 3.83 0 0 1-1.82 3.14l-53.49 30.75a9.87 9.87 0 0 1-9.86 0l-169.07-97.51a3.14 3.14 0 0 1-1.6-2.87v-6.5a3.34 3.34 0 0 0 1.6 2.86z" transform="translate(-211.72 -214.2)"/><path class="cls-14" d="m361.78 734.63 6.83-3.97 7.82 4.47-6.83 3.96-7.82-4.46zm9.69 5.62 6.89-4.02 7.77 4.52-6.83 3.96-7.83-4.46zm9.76 5.56 6.83-3.96 7.82 4.51-6.83 3.97-7.82-4.52zm9.69 5.62 6.89-3.96 7.82 4.46-6.89 3.96-7.82-4.46zm9.75 5.62 6.89-4.02 7.77 4.52-6.83 3.96-7.83-4.46zm9.75 5.57 6.83-3.97 7.83 4.52-6.83 3.96-7.83-4.51zm9.7 5.62 6.88-3.97 7.77 4.46-6.83 3.97-7.82-4.46zm9.75 5.61 6.83-4.02 7.82 4.52-6.83 3.97-7.82-4.47zm9.7 5.57 6.88-3.97 7.77 4.52-6.83 3.97-7.82-4.52zm9.75 5.62 6.88-3.97 7.77 4.46-6.83 3.97-7.82-4.46zm9.75 5.56 6.83-3.97 7.82 4.52-6.83 3.97-7.82-4.52zm9.69 5.62 6.89-3.97 7.77 4.52-6.83 3.91-7.83-4.46zm16.59 1.6 7.82 4.52-6.83 3.96-7.83-4.46 6.84-4.02zm-124.67-53.55-7.77-4.52 6.83-3.96 7.82 4.51-6.88 3.97zm16.58 1.6-6.83 3.97-7.82-4.47 6.88-3.96 7.77 4.46zm9.75 5.62-6.83 3.96-7.82-4.46 6.83-4.02 7.82 4.52zm9.7 5.62-6.84 3.96-7.82-4.51 6.89-3.97 7.77 4.52zm9.75 5.56-6.83 3.97-7.83-4.47 6.83-3.96 7.83 4.46zm9.75 5.62-6.89 3.97-7.82-4.47 6.88-4.02 7.83 4.52zm9.69 5.62-6.83 3.97-7.82-4.52 6.89-3.97 7.76 4.52zm9.75 5.56-6.83 3.97-7.82-4.46 6.83-3.97 7.82 4.46zm9.7 5.62-6.83 3.97-7.82-4.46 6.88-4.02 7.77 4.51zm9.75 5.62-6.83 3.97-7.82-4.52 6.83-3.96 7.82 4.51zm9.75 5.57-6.88 3.96-7.83-4.46 6.89-3.97 7.82 4.47zm9.7 5.61-6.83 3.97-7.83-4.46 6.84-4.02 7.82 4.51zm1.93 1.11 7.82 4.46-6.83 4.02-7.83-4.52 6.84-3.96zm-124.67-53.61-7.83-4.46 6.89-3.96 7.77 4.46-6.83 3.96zm16.58 1.66-6.83 3.96-7.82-4.51 6.83-3.97 7.82 4.52zm-4.96 5.07 6.89-3.97 7.82 4.46-6.89 3.97-7.82-4.46zm24.41 6.11L381 766.2l-7.82-4.47 6.89-4.02 7.77 4.52zm9.75 5.62-6.83 3.97-7.83-4.52 6.83-3.97 7.83 4.52zm9.69 5.56-6.83 3.97-7.82-4.46 6.88-3.97 7.77 4.46zm9.75 5.62L410.2 783l-7.82-4.46 6.83-4.03 7.82 4.52zm9.76 5.62-6.89 3.97-7.82-4.52 6.88-3.97 7.83 4.52zm9.69 5.57-6.83 3.96-7.82-4.46 6.88-3.97 7.77 4.47zm9.75 5.62-6.83 3.96-7.82-4.46 6.83-4.02 7.82 4.52zm9.7 5.62-6.83 3.96-7.83-4.52 6.89-3.96 7.77 4.52zm-4.91 5.06 6.84-3.96 7.82 4.46-6.83 3.97-7.83-4.47zm16.59 1.6 7.82 4.52-6.89 3.96-7.82-4.51 6.89-3.97zm-124.67-53.55-7.82-4.52 6.88-3.96 7.77 4.52-6.83 3.96zm1.93 1.1 6.83-4.02 7.82 4.52-6.83 3.97-7.82-4.47zm9.69 5.57 6.89-3.97 7.77 4.52-6.84 3.97-7.82-4.52zm9.75 5.62 6.89-3.97 7.77 4.46-6.84 3.97-7.82-4.46zm9.7 5.62 6.88-4.02 7.83 4.51-6.89 3.97-7.82-4.46zm9.75 5.56 6.89-3.96 7.76 4.51-6.83 3.97-7.82-4.52zm9.75 5.62 6.83-3.97 7.82 4.47-6.83 3.96-7.82-4.46zm9.7 5.62 6.88-4.02 7.77 4.51-6.83 3.97-7.82-4.46zm9.75 5.56 6.83-3.96 7.82 4.51-6.83 3.97-7.82-4.52zm9.69 5.62 6.89-3.96 7.82 4.46-6.88 3.96-7.83-4.46zm9.75 5.62 6.89-4.02 7.77 4.52-6.83 3.96-7.83-4.46zm9.75 5.57 6.84-3.97 7.82 4.52-6.83 3.96-7.83-4.51zm16.59 1.65 7.76 4.46-6.83 3.97-7.82-4.46 6.89-3.97zm-124.67-53.6-7.82-4.47 6.88-4.02 7.77 4.52-6.83 3.97zm1.87 1.1 6.89-3.97 7.82 4.46-6.83 3.97-7.88-4.46zm9.75 5.62 6.89-3.97 7.77 4.46-6.84 3.97-7.82-4.46zm9.75 5.56 6.83-3.97 7.83 4.52-6.83 3.97-7.83-4.52zm9.7 5.62 6.88-3.97 7.77 4.52-6.83 3.97-7.82-4.52zm9.75 5.62 6.89-4.02 7.76 4.52-6.83 3.96-7.82-4.46zm9.7 5.56 6.88-3.96 7.83 4.52-6.89 3.96-7.82-4.52zm9.75 5.62 6.88-3.96 7.77 4.46-6.83 3.97-7.82-4.47zm9.75 5.62 6.83-4.02 7.82 4.52-6.83 3.97-7.82-4.47zm9.69 5.57 6.89-3.97 7.77 4.52-6.83 3.96-7.83-4.51zm9.76 5.62 6.83-3.97 7.82 4.46-6.83 3.97-7.82-4.46zm9.69 5.62 6.89-4.03 7.82 4.52-6.89 3.97-7.82-4.46zm16.64 1.59 7.77 4.52-6.84 3.97-7.82-4.52 6.89-3.97zm-125.66-62.03 7.82 4.46-6.83 3.97-7.82-4.46 6.83-3.97zm17.52 10.08-6.84 3.97-7.82-4.52 6.89-3.96 7.77 4.51zm9.75 5.62-6.84 3.97-7.82-4.52 6.83-3.97 7.83 4.52zm9.75 5.57-6.83 3.96-7.83-4.46 6.83-4.02 7.83 4.52zm9.69 5.61-6.83 3.97-7.82-4.52 6.89-3.96 7.76 4.51zm9.75 5.57-6.83 3.96-7.82-4.46 6.83-3.96 7.82 4.46zm1.93 1.16 9.7 5.56h.05l1.88 1.1 7.82 4.52 3.97 2.26 5.78 3.3 6.12 3.58 11.4 6.56-6.83 3.97-11.9-6.89-5.68-3.2-5.89-3.41-3.86-2.2h.06l-7.71-4.41-2.04-1.21-9.75-5.57 6.88-3.96zm56.41 32.44-6.83 3.97-7.82-4.46 6.89-3.97 7.76 4.46zm9.76 5.62-6.83 3.97-7.83-4.46 6.83-4.02 7.83 4.51zm49.19-15.04 6.83-3.96 7.83 4.46-6.83 3.97-7.83-4.47zm9.75 5.62 6.83-4.02 7.83 4.52-6.89 3.97-7.77-4.47zm9.7 5.57 6.88-3.97 7.77 4.52-6.83 3.96-7.82-4.51zm-13.66-5.51-6.83 3.96-7.83-4.51 6.83-3.97 7.83 4.52zm9.69 5.56-6.83 3.97-7.82-4.46 6.88-3.97 7.77 4.46zm9.75 5.62-6.83 3.97-7.82-4.47 6.83-4.02 7.82 4.52zm-28.31-6.06-6.89 3.97-7.77-4.46 6.83-4.03 7.83 4.52zm9.69 5.62-6.83 3.97-7.82-4.52 6.89-3.97 7.76 4.52zm9.75 5.56-6.83 3.97-7.82-4.46 6.83-3.97 7.82 4.46zm-43.02-6.55 6.88-3.97 7.83 4.47-6.89 3.96-7.82-4.46zm9.75 5.62 6.83-4.02 7.82 4.51-6.83 3.97-7.82-4.46zm9.7 5.56 6.88-3.96 7.82 4.51-6.88 3.97-7.82-4.52zm-28.32-6.06 6.88-3.96 7.77 4.51-6.83 3.97-7.82-4.52zm9.75 5.62 6.83-3.96 7.82 4.46-6.83 3.96-7.82-4.46zm9.7 5.62 6.88-4.02 7.82 4.52-6.88 3.96-7.82-4.46zm-13.67-5.56-6.83 3.96-7.82-4.46 6.88-3.97 7.77 4.47zm9.75 5.62-6.83 3.96-7.82-4.51 6.83-3.97 7.82 4.52z"/><path class="cls-14" d="m640.87 919.08 53.93-31.29a7.2 7.2 0 0 1 7.39 0l127.92 73.87a3.26 3.26 0 0 1 1 4.48 3.37 3.37 0 0 1-1 1l-52.72 30.58a8.59 8.59 0 0 1-8.76 0L640.87 924a2.92 2.92 0 0 1-.94-4 3 3 0 0 1 .94-.92z" transform="translate(-211.72 -214.2)"/><path class="cls-15" d="m640.87 924.09 127.76 73.71a8.59 8.59 0 0 0 8.76 0l52.72-30.57a3.3 3.3 0 0 0 1.59-2.81v6.77a3.2 3.2 0 0 1-1.59 2.76l-52.72 30.3a8.78 8.78 0 0 1-8.76 0l-127.76-73.77a2.92 2.92 0 0 1-1.43-2.53v-6.34a2.91 2.91 0 0 0 1.43 2.48z" transform="translate(-211.72 -214.2)"/><path class="cls-13" d="m640.87 924.09 127.76 73.71a8.39 8.39 0 0 0 4 1.16v6.56a8.49 8.49 0 0 1-4-1.11l-127.76-73.76a2.93 2.93 0 0 1-1.43-2.54v-6.5a2.91 2.91 0 0 0 1.43 2.48z" transform="translate(-211.72 -214.2)"/><path class="cls-12" d="m569.03 709.78-99.39-57.56v49.25l99.39 57.51v-49.2z"/><path class="cls-15" d="m483.47 644.28-13.83 7.94 99.39 57.56 13.88-7.98-99.44-57.52z"/><path class="cls-15" d="m582.91 701.8-13.88 7.98v49.2l13.88-8.04V701.8z"/><path class="cls-16" d="m369.11 401.55 302.22 175.3V799.2L369.11 623.24V401.55z"/><path class="cls-15" d="m671.33 576.85 10.03-6.11v222.4l-10.03 6.06V576.85z"/><path class="cls-14" d="m369.11 401.55 10.3-5.95 301.95 175.14-10.03 6.11-302.22-175.3z"/><path class="cls-13" d="M580.82 615.81v221.68l302.23 176V791.05zM876.05 1001 588 833.47V628.2l288.07 167z" transform="translate(-211.72 -214.2)"/><path d="M468.93 890.32c-3.14 31.79-26.55 55.48-52.33 52.94s-44.07-30.35-40.93-62.14 26.55-55.42 52.33-52.89 44.07 30.36 40.93 62.09z" transform="translate(-211.72 -214.2)" style="fill:#fdd4bd"/><path class="cls-18" d="M507.44 964.36s11 2.7 15.1 3.09 18.62 3.47 24.62 1.65-5.51-5.84-8.1-7.88-2.64-7.27 3.42-9.09 19.83-1 27.1-2-7.21-23-19.06-25.06a50 50 0 0 0-32.45 4.41c-10.08 4.95-15.59 13.38-20.27 15z" transform="translate(-211.72 -214.2)"/><path class="cls-2" d="m508.76 934.39-76.63 19.23-3.85 48.65 90.46-31.08c1.87-17.13-9.98-36.8-9.98-36.8zM319.64 955s-21.21 26.66 0 63.46c0 0 14.82 20.5 55.48.39z" transform="translate(-211.72 -214.2)"/><path d="M382.61 923.82s33.05-2.26 58.89 15.81a20 20 0 0 0 7.11 8.92c5.17 3.47 30.9 13.77 30.9 13.77s-11.35 150.79 1.65 224.22c0 0-55.8 43.58-143.23 0 0 0-12.73-185.16-18.35-231.38.06-.16 14.77-18.16 63.03-31.34z" transform="translate(-211.72 -214.2)" style="fill:#de4b5b"/><path class="cls-3" d="M156.35 958.52 0 868.11l52.61 152.44 156.4 90.18-52.66-152.21z"/><path class="cls-8" d="M17.24 858.09 0 868.11l156.35 90.41 17.46-10.14-156.57-90.29z"/><path class="cls-9" d="m173.81 948.38-17.46 10.14 52.66 152.21 17.63-10.13-52.83-152.22z"/><path class="cls-18" d="M610.46 1031.19s8.54-8.6 11.79-11 14.71-13.28 21.16-14.71-4.52 9.75-5.9 13.22 6.61-2.81 12.62-5.07a29.73 29.73 0 0 1 20.49.72c14.82 5.51 14.1 34.87 2 31.4-19.88-5.51-28.81 10-40.71 13.33a119.65 119.65 0 0 1-16.8 3.09z" transform="translate(-211.72 -214.2)"/><path class="cls-2" d="M479.4 962.32 544 1048l67.21-19.83s14.44 18.18 9.75 37.4l-89.68 34.93-72.89-80.15s-24.27-50.92 21.01-58.03z" transform="translate(-211.72 -214.2)"/><path class="cls-7" d="M443.48 801.08s5 11.95-18.84 15.2-53.16 15-60.93 40.16c-5 16 .77 33.06 8.87 47.27a91.09 91.09 0 0 0 9.42 13.77 51.44 51.44 0 0 0 35.09-6 61 61 0 0 0 18.9-23s14.16 5.89 18.57-5.9c3.25-8.7 13.49-11 19.06-15.59.27.01 32.11-52.53-30.14-65.91z" transform="translate(-211.72 -214.2)"/><path class="cls-3" d="m1119.16 1043.08-103.62-60.1v38.78l103.62 59.94v-38.62z"/><path class="cls-8" d="m1122.63 921.44-107.09 61.54 103.62 60.1 107.21-61.59-103.74-60.05z"/><path class="cls-9" d="m1226.37 981.49-107.21 61.59v38.62l107.21-62.03v-38.18z"/><path class="cls-3" d="m1119.16 979.73-103.62-60.16v38.78l103.62 59.94v-38.56z"/><path class="cls-8" d="m1122.63 858.03-107.09 61.54 103.62 60.16 107.21-61.65-103.74-60.05z"/><path class="cls-9" d="m1226.37 918.08-107.21 61.65v38.56l107.21-62.03v-38.18z"/><path class="cls-3" d="m943.92 1144.56-103.57-60.16v38.78l103.62 59.94-.05-38.56z"/><path class="cls-8" d="m947.44 1022.86-107.09 61.54 103.57 60.16 107.26-61.65-103.74-60.05z"/><path class="cls-9" d="m1051.18 1082.91-107.26 61.65.05 38.56 107.21-62.03v-38.18z"/><path class="cls-3" d="m943.92 1081.15-103.57-60.11v38.73l103.62 60-.05-38.62z"/><path class="cls-8" d="m947.44 959.51-107.09 61.53 103.57 60.11 107.26-61.59-103.74-60.05z"/><path class="cls-9" d="m1051.18 1019.56-107.26 61.59.05 38.62 107.21-62.04v-38.17z"/><path class="cls-3" d="m768.73 1245.98-103.57-60.1v38.72l103.57 60v-38.62z"/><path class="cls-8" d="m772.26 1124.34-107.1 61.54 103.57 60.1 107.26-61.59-103.73-60.05z"/><path class="cls-9" d="m875.99 1184.39-107.26 61.59v38.62l107.26-62.03v-38.18z"/><path class="cls-3" d="m768.73 1182.57-103.57-60.1v38.78l103.57 59.94v-38.62z"/><path class="cls-8" d="m772.26 1060.93-107.1 61.54 103.57 60.1 107.26-61.59-103.73-60.05z"/><path class="cls-9" d="m875.99 1120.98-107.26 61.59v38.62l107.26-62.03v-38.18z"/><path class="cls-6" d="m1012.79 1358.87-6.5-3.81a59.09 59.09 0 0 1-15.26 3.7v5.5h-15.82v-5.5a60 60 0 0 1-15.26-3.7l-6.44 3.81-11-6.51 6.5-3.74a20.74 20.74 0 0 1-6.39-8.82h-9.14v-9.2h8.7a20.59 20.59 0 0 1 6.28-8.81l-6.28-3.53 11-6.5 6.5 3.75a61.18 61.18 0 0 1 15.2-3.64v-5.51h15.82v5.51a62.12 62.12 0 0 1 15.31 3.64l6.45-3.75 11 6.5-6.46 3.74a20.35 20.35 0 0 1 6.39 8.81h9.15v9.19h-8.82a20.37 20.37 0 0 1-6.28 8.81l6.5 3.75zm-44.41-15.15a32.47 32.47 0 0 0 29.37 0c8-4.74 8-12.34 0-17a32.35 32.35 0 0 0-29.31 0c-8.1 4.69-8 12.29 0 17" transform="translate(-211.72 -214.2)"/><path style="fill:#ef4237" d="m955.32 992.95 10.08 21.48 10.09 21.54-37.19-5.78-37.19-5.73 27.11-15.75 27.1-15.76z"/><path d="m1328.56 788.4-100.65-58a9.32 9.32 0 0 0-10 .39l-22 12.73 10.3 13.93 3.8 4.41v99.66a16.55 16.55 0 0 0 8.32 14.38l75.31 43.57.77 4.19 15.37 21.54 23.64-13.94a7.55 7.55 0 0 0 3.58-6.44V803.61a17.3 17.3 0 0 0-8.44-15.21z" transform="translate(-211.72 -214.2)" style="fill:#95ca57"/><path class="cls-22" d="m1305 802.23-101.81-58.72a7.42 7.42 0 0 0-11 6.44V872a16.52 16.52 0 0 0 8.31 14.44l101.76 58.83a7.71 7.71 0 0 0 11.51-6.61V816.94a17.32 17.32 0 0 0-8.77-14.71z" transform="translate(-211.72 -214.2)"/><path class="cls-3" d="M1309.78 945.08z" transform="translate(-211.72 -214.2)"/><path d="M1313.63 938.47V816.94a16.3 16.3 0 0 0-1.21-5.84l23.64-13.61a17.65 17.65 0 0 1 1.1 5.51v121.2a7.55 7.55 0 0 1-3.58 6.45l-23.42 13.77a7.46 7.46 0 0 0 3.47-5.95z" transform="translate(-211.72 -214.2)" style="fill:#54b848"/><path d="M1443.48 546.06 1342.83 488a9.53 9.53 0 0 0-10.08.38l-22 12.78 10.25 13.89 3.8 4.4v99.66a16.53 16.53 0 0 0 8.32 14.44l75.31 43.52.77 4.18 15.37 21.54 23.63-13.88a7.42 7.42 0 0 0 3.58-6.44v-121.2a17.07 17.07 0 0 0-8.3-15.21z" transform="translate(-211.72 -214.2)" style="fill:#262b63"/><path d="m1420.18 559.89-101.81-58.78a7.5 7.5 0 0 0-11 6.5v122a16.55 16.55 0 0 0 8.32 14.38l101.76 58.84a7.65 7.65 0 0 0 10.44-2.85 7.51 7.51 0 0 0 1-3.76V574.54a17.06 17.06 0 0 0-8.71-14.65z" transform="translate(-211.72 -214.2)" style="fill:#3f56a6"/><path class="cls-3" d="M1424.92 702.68z" transform="translate(-211.72 -214.2)"/><path class="cls-16" d="M1428.72 696.07V574.54a16.25 16.25 0 0 0-1.16-5.84l23.64-13.6a17.86 17.86 0 0 1 1 5.51V681.8a7.43 7.43 0 0 1-3.58 6.45L1425.19 702a7.55 7.55 0 0 0 3.53-5.93z" transform="translate(-211.72 -214.2)"/><path d="m1107.43 547.82-100.81-58.06a9.52 9.52 0 0 0-10.09.39l-22 12.72 10.3 13.94 3.8 4.41v99.65a16.55 16.55 0 0 0 8.32 14.44l75.31 43.52.74 4.17 15.37 21.54 23.63-13.87a7.56 7.56 0 0 0 3.59-6.44V563a17.09 17.09 0 0 0-8.16-15.18z" transform="translate(-211.72 -214.2)" style="fill:#eac"/><path d="m1083.74 561.65-101.8-58.72a7.43 7.43 0 0 0-11 6.5v121.8a16.53 16.53 0 0 0 8.32 14.44L1081 704.5a7.66 7.66 0 0 0 10.45-2.84 7.79 7.79 0 0 0 1-3.77v-121.2a17.09 17.09 0 0 0-8.71-15.04z" transform="translate(-211.72 -214.2)" style="fill:#e581b4"/><path class="cls-3" d="M1088.43 704.45z" transform="translate(-211.72 -214.2)"/><path d="M1092.28 697.84v-121.2a16 16 0 0 0-1.16-5.84l23.64-13.61a17.88 17.88 0 0 1 1 5.51v121.2a7.56 7.56 0 0 1-3.59 6.44l-23.46 13.78a7.55 7.55 0 0 0 3.57-6.28z" transform="translate(-211.72 -214.2)" style="fill:#ca6baa"/><path d="M887.07 312.81 786.31 255a9.51 9.51 0 0 0-10.08.39l-22 12.78 10.25 13.88 3.86 4.41v99.65a16.53 16.53 0 0 0 8.26 14.44l75.31 43.52.77 4.19L868 469.82l23.63-13.89a7.38 7.38 0 0 0 3.64-6.44v-121.2a17.13 17.13 0 0 0-8.2-15.48z" transform="translate(-211.72 -214.2)" style="fill:#fbea30"/><path class="cls-30" d="m863.38 326.64-101.81-58.78a7.48 7.48 0 0 0-10.13 3.08 7.4 7.4 0 0 0-.88 3.42v121.86a16.5 16.5 0 0 0 8.31 14.37l101.81 58.84a7.65 7.65 0 0 0 11.46-6.61v-121.2a17 17 0 0 0-8.76-14.98z" transform="translate(-211.72 -214.2)"/><path class="cls-3" d="M868.12 469.43z" transform="translate(-211.72 -214.2)"/><path d="M872 462.82v-121.2a17.44 17.44 0 0 0-1.16-5.84l23.58-13.61a16.53 16.53 0 0 1 1.1 5.51v121.2a7.38 7.38 0 0 1-3.64 6.45l-23.43 13.77a7.66 7.66 0 0 0 3.55-6.28z" transform="translate(-211.72 -214.2)" style="fill:#eaa222"/><path class="cls-8" d="M1063.63 585.56a64.49 64.49 0 0 0-22.36-23.63 22.52 22.52 0 0 0-22.48-2.26c-11 6.28-12.28 25.18-3.74 44.07L987.5 619.5l8 13.94 27.55-15.76a59.89 59.89 0 0 0 18 16.86 22.51 22.51 0 0 0 22.37 2.26c12.5-6.8 12.58-29.86.21-51.24zm-8.2 37.52a14.45 14.45 0 0 1-14.33-1.43 41 41 0 0 1-14.32-15.1c-7.88-13.66-7.88-28.43 0-33a14.43 14.43 0 0 1 14.32 1.43 42 42 0 0 1 14.33 15.15c7.93 13.67 7.93 28.49 0 32.95zm285.09-70.9a9.58 9.58 0 0 0-1.65 6.61v15c0 2.76-.89 4.24-2.65 4.41a14.09 14.09 0 0 1-7.6-2.53v9.91a25.92 25.92 0 0 1 7.55 6.23 12.49 12.49 0 0 1 2.64 7.93v14.36a20.76 20.76 0 0 0 1.6 8.59 21.83 21.83 0 0 0 5.51 7 55.6 55.6 0 0 0 9.86 6.94V627a17 17 0 0 1-5.51-4.9 11.29 11.29 0 0 1-1.43-5.51v-14.5a19 19 0 0 0-9.09-15.1v-.55c6 2.48 9 .77 9.14-5.07V567.6c0-2.2.5-3.58 1.49-4s2.81 0 5.51 1.43v-9.58a39.18 39.18 0 0 0-9.81-4.41 5.51 5.51 0 0 0-5.56 1.14zm56.91 61.42a12 12 0 0 1-2.59-7.49v-15a19.59 19.59 0 0 0-3.75-12.12 42 42 0 0 0-12.94-10.36v9.59a16.55 16.55 0 0 1 5.51 4.85 11.07 11.07 0 0 1 1.43 5.51v13.77a20 20 0 0 0 9.2 15.7v.55a9 9 0 0 0-6.83-.72c-1.6.78-2.43 2.54-2.43 5.51v14.22c0 2.2-.49 3.58-1.43 4.07s-2.86 0-5.51-1.48v9.58a23.54 23.54 0 0 0 13.06 4.63c2.48-.5 3.74-3.09 3.74-7.82v-14.42c0-3 .88-4.63 2.59-4.9a13.56 13.56 0 0 1 7.6 2.53v-10.14a26.59 26.59 0 0 1-7.65-6.06z" transform="translate(-211.72 -214.2)"/><path class="cls-16" d="m993.28 607.81 31.51 34.27.06-8.76-21.76-22.86 21.81.99v-8.76l-31.62-.11v5.23zm34.76 43.58 8.82 5.07 17.51-43.47-8.86-5.07-17.47 43.47zm29.36-29.92v8.76l21.76 24.13-21.81-2.25-.06 8.75 31.68 2.21v-5.24l-31.57-36.36z"/><path class="cls-30" d="M406.73 447.77v5.9l24.79 14.27v-5.9l-24.79-14.27z"/><path class="cls-32" d="M406.73 458.52v5.89l24.79 14.33v-5.9l-24.79-14.32zm0 10.79v5.9l24.79 14.27v-5.9l-24.79-14.27zm186.98 124.51v-5.9l-152.93-88.19v5.89l152.93 88.2zM406.73 480.06v5.89l24.79 14.33v-5.9l-24.79-14.32zm0 10.8v5.89l24.79 14.27v-5.9l-24.79-14.26z"/><path class="cls-22" d="M593.71 604.56v-5.89l-152.93-88.15v5.84l152.93 88.2z"/><path class="cls-32" d="M406.73 523.14v5.89l24.79 14.33v-5.9l-24.79-14.32z"/><path class="cls-30" d="M406.73 533.94v5.89l24.79 14.27v-5.9l-24.79-14.26z"/><path class="cls-32" d="M406.73 577.02v5.89l24.79 14.33v-5.96l-24.79-14.26zm0 10.79v5.9l24.79 14.27v-5.9l-24.79-14.27z"/><path class="cls-22" d="m537.24 663.07-96.46-55.64v5.89l96.46 55.64v-5.89z"/><path class="cls-32" d="M542.31 665.99v5.95l51.4 29.58v-5.89l-51.4-29.64zm-53.05-41.37-48.48-27.94v5.9l48.48 27.93v-5.89zm5.07 2.97v5.84l99.38 57.35v-5.9l-99.38-57.29zM580.6 645v5.89l13.11 7.55v-5.9L580.6 645z"/><path class="cls-2" d="m509.48 593.21-68.7-39.61v5.9l68.7 39.61v-5.9z"/><path class="cls-32" d="m481.32 490.8-40.54-23.41v5.89l40.54 23.41v-5.89zm66.5 38.34-61.37-35.42v5.9l61.37 35.42v-5.9zm-35.81-9.86-43.19-24.95v5.89l43.19 24.96v-5.9z"/><path class="cls-2" d="m557.4 545.39-40.27-23.19v5.9l40.27 23.24v-5.95z"/><path class="cls-32" d="M562.47 548.37v5.89l31.24 18.02v-5.9l-31.24-18.01z"/><path class="cls-2" d="M448.77 493.56v5.89l32.55 18.79v-5.9l-32.55-18.78z"/><path class="cls-32" d="m580.93 569.8-94.48-54.54v5.89l94.48 54.54v-5.89zm-54.1 1.1-61.76-35.64v5.89l61.76 35.65v-5.9zm54.1 31.18-49.03-28.26v5.9l49.03 28.26v-5.9zm-5.4 29.2-60.93-35.15v5.9l60.93 35.14v-5.89z"/><path class="cls-22" d="M542.31 622.91v5.89l33.22 19.17v-5.89l-33.22-19.17z"/><path class="cls-32" d="m452.73 571.23-11.95-6.88v5.89l11.95 6.89v-5.9zm22.42 12.95v5.89l62.09 35.81v-5.89l-62.09-35.81zm-5.06-2.92-12.23-7.05v5.89l12.23 7.05v-5.89zm55.69 42.86-67.92-39.17v5.89l67.92 39.17v-5.89zm78.67-62.25v1.59l6.83 3.97v-1.65l-6.83-3.91zm0 2.97v1.6l6.83 3.97v-1.66l-6.83-3.91zm0 2.98v1.59l6.83 3.97v-1.65l-6.83-3.91zm51.51 34.26v-1.59l-42.14-24.3v1.6l42.14 24.29zm-51.51-31.29v1.6l6.83 3.91v-1.6l-6.83-3.91zm0 2.92v1.65l6.83 3.91v-1.59l-6.83-3.97zm51.51 31.35v-1.6l-42.14-24.3v1.6l42.14 24.3zm-51.51-22.42v1.65l6.83 3.91v-1.6l-6.83-3.96zm0 2.97v1.6l6.83 3.96v-1.65l-6.83-3.91zm0 11.85v1.65l6.83 3.96v-1.65l-6.83-3.96zm0 2.97v1.65l6.83 3.91v-1.59l-6.83-3.97zm35.97 20.77-26.6-15.32v1.6l26.6 15.32v-1.6zm1.38.82v1.6l14.16 8.16v-1.6l-14.16-8.16zm-14.6-11.4-13.38-7.71v1.6l13.38 7.71v-1.6zm1.38.77v1.66l27.38 15.75v-1.6l-27.38-15.81zm23.8 4.85v1.6l3.58 2.09v-1.65l-3.58-2.04zm-19.61-14.32-18.95-10.91v1.65l18.95 10.91v-1.65zM625 573.71l-11.18-6.45v1.66l11.18 6.44v-1.65zm18.35 10.58-16.97-9.75v1.59l16.97 9.76v-1.6zm-9.92-2.7-11.9-6.89v1.6l11.9 6.89v-1.6zm12.5 7.16-11.07-6.39v1.65l11.07 6.39v-1.65zm1.44.83v1.65l8.59 4.96v-1.66l-8.59-4.95zm-31.35-15.1v1.65l8.98 5.13v-1.6l-8.98-5.18zm36.41 20.99-26.05-14.98v1.6l26.05 15.03v-1.65zm-14.92.33-16.97-9.8v1.59l16.97 9.81v-1.6zm14.92 8.6-13.49-7.77v1.6l13.49 7.76v-1.59zm-1.48 8.04-16.81-9.7v1.66l16.81 9.69v-1.65zm-9.15-2.31v1.65l9.15 5.23v-1.6l-9.15-5.28zm-24.68-14.22-3.3-1.93v1.66l3.3 1.87v-1.6zm6.17 3.53v1.65l17.13 9.86v-1.65l-17.13-9.86zm-1.38-.77-3.41-1.99v1.66l3.41 1.92v-1.59zm15.32 11.79-18.73-10.8v1.65l18.73 10.8v-1.65zm-32.78 1.65v1.6l6.83 3.96v-1.65l-6.83-3.91zm0 2.92v1.65l6.83 3.97V619l-6.83-3.97zm0 2.97v1.66l6.83 3.91v-1.6l-6.83-3.97zm51.51 34.33v-1.6l-42.14-24.3v1.6l42.14 24.3zm-51.51-31.35v1.65l6.83 3.91v-1.59l-6.83-3.97zm0 2.97v1.66l6.83 3.91v-1.6l-6.83-3.97zm51.51 31.35v-1.6l-42.14-24.35V631l42.14 24.3zm-51.51-22.42v1.6l6.83 3.96v-1.65l-6.83-3.91zm0 2.97v1.6l6.83 3.97v-1.66l-6.83-3.91zm0 11.85v1.65l6.83 3.91v-1.6l-6.83-3.96zm0 2.97v1.66l6.83 3.91v-1.6l-6.83-3.97zm35.97 20.77-26.6-15.37v1.65l26.6 15.32v-1.6zm1.38.77v1.66l14.16 8.15v-1.65l-14.16-8.16zm-14.6-11.4-13.38-7.66v1.6l13.38 7.71v-1.65zm1.38.82v1.6l27.38 15.81v-1.59l-27.38-15.82zm23.8 4.8v1.65l3.58 2.04v-1.6l-3.58-2.09zm-19.61-14.27-18.95-10.91v1.6l18.95 10.96v-1.65zM625 623.95l-11.18-6.44v1.6l11.18 6.44v-1.6zm18.35 10.58-16.97-9.75v1.6l16.97 9.75v-1.6zm-9.92-2.75-11.9-6.83v1.59l11.9 6.89v-1.65zm12.5 7.21-11.07-6.39v1.65l11.07 6.4v-1.66zm1.44.83v1.6l8.59 4.96v-1.6l-8.59-4.96zm-31.35-15.09v1.59l8.98 5.18v-1.6l-8.98-5.17zm36.41 20.98-26.05-15.04v1.66l26.05 14.98v-1.6zm-14.92.33-16.97-9.86v1.66l16.97 9.8v-1.6zm14.92 8.6-13.49-7.82v1.65l13.49 7.77v-1.6zm-1.48 8.04-16.81-9.69v1.59l16.81 9.7v-1.6zm-9.15-2.31v1.6l9.15 5.28v-1.59l-9.15-5.29zm-24.68-14.27-3.3-1.87v1.59l3.3 1.93v-1.65zm6.17 3.58v1.6l17.13 9.92v-1.66l-17.13-9.86zm-1.38-.83-3.41-1.92v1.59l3.41 1.99v-1.66zm15.32 11.85-18.73-10.8v1.6l18.73 10.8v-1.6zm-32.78 1.6v1.65l6.83 3.91v-1.6l-6.83-3.96zm0 2.97v1.65l6.83 3.92v-1.6l-6.83-3.97zm0 2.98v1.65l6.83 3.91v-1.6l-6.83-3.96zm51.51 34.32v-1.66l-42.14-24.29v1.65l42.14 24.3zm-51.51-31.35v1.65l6.83 3.91v-1.59l-6.83-3.97zm0 2.98v1.59l6.83 3.97v-1.65l-6.83-3.91zm51.51 31.34v-1.65l-42.14-24.29v1.65l42.14 24.29zm-51.51-22.42v1.6l6.83 3.91v-1.6l-6.83-3.91zm0 2.92v1.65l6.83 3.91v-1.59l-6.83-3.97zm0 11.9v1.6l6.83 3.96v-1.65l-6.83-3.91zm0 2.97v1.6l6.83 3.97v-1.65l-6.83-3.92zm35.97 20.72-26.6-15.32v1.66l26.6 15.31v-1.65zm1.38.83v1.65l14.16 8.15v-1.65l-14.16-8.15zm-14.6-11.41-13.38-7.71v1.65l13.38 7.71v-1.65zm1.38.83v1.6l27.38 15.81v-1.66l-27.38-15.75zm23.8 4.79v1.6l3.58 2.09v-1.6l-3.58-2.09zm-19.61-14.27-18.95-10.91v1.6L632.77 704v-1.6zM625 674.2l-11.18-6.45v1.6l11.18 6.44v-1.59zm18.35 10.52-16.97-9.75v1.65l16.97 9.75v-1.65zm-9.92-2.7-11.9-6.89v1.65l11.9 6.84v-1.6zm12.5 7.22-11.07-6.39v1.59l11.07 6.39v-1.59zm1.44.77v1.65l8.59 4.96v-1.6l-8.59-5.01zm-31.35-15.1v1.66l8.98 5.17v-1.65l-8.98-5.18zm36.41 21.05-26.05-15.04v1.59l26.05 15.04v-1.59zm-14.92.27-16.97-9.8v1.59l16.97 9.86v-1.65zm14.92 8.6-13.49-7.77v1.6l13.49 7.82v-1.65zm-1.48 8.04-16.81-9.7v1.66l16.81 9.69v-1.65zm-9.15-2.26v1.6l9.15 5.29v-1.66l-9.15-5.23zm-24.68-14.27-3.3-1.87v1.6l3.3 1.87v-1.6zm6.17 3.58v1.6l17.13 9.86v-1.6l-17.13-9.86zm-1.38-.82-3.41-1.93v1.6l3.41 1.92v-1.59zm15.32 11.84-18.73-10.8v1.6l18.73 10.8v-1.6zm-32.78 1.6v1.65l6.83 3.91v-1.6l-6.83-3.96zm0 2.97v1.6l6.83 3.97v-1.66l-6.83-3.91zm0 2.98v1.6l6.83 3.96v-1.65l-6.83-3.91zm51.51 34.32v-1.65l-42.14-24.3v1.65l42.14 24.3zm-51.51-31.35v1.6l6.83 3.97v-1.65l-6.83-3.92zm0 2.98v1.6l6.83 3.91v-1.6l-6.83-3.91zm51.51 31.29v-1.6l-42.14-24.29v1.59l42.14 24.3zm-51.51-22.42v1.65l6.83 3.91v-1.6l-6.83-3.96zm0 2.97v1.65l6.83 3.92v-1.6l-6.83-3.97zm47.93 30.63v1.6l3.58 2.09v-1.65l-3.58-2.04zm-19.61-14.27-18.95-10.96v1.65l18.95 10.91v-1.6zM625 724.38l-11.18-6.44v1.65l11.18 6.45v-1.66zm18.35 10.58-16.97-9.75v1.65l16.97 9.75v-1.65zm-9.92-2.7-11.9-6.88v1.65l11.9 6.83v-1.6zm12.5 7.22-11.07-6.45v1.65l11.07 6.4v-1.6zm1.44.77v1.65l8.59 4.96v-1.65l-8.59-4.96zm-31.35-15.1v1.66l8.98 5.18v-1.66l-8.98-5.18zm36.41 20.99-26.05-14.98v1.6l26.05 15.04v-1.66zm-14.92.33-16.97-9.8v1.6l16.97 9.8v-1.6zm14.92 8.6-13.49-7.77v1.6l13.49 7.82v-1.65zm-1.48 8.04-16.81-9.69v1.65l16.81 9.69v-1.65zm-9.15-2.31v1.65l9.15 5.23v-1.59l-9.15-5.29zm-24.68-14.21-3.3-1.93v1.65l3.3 1.87v-1.59zm6.17 3.52v1.65l17.13 9.86v-1.59l-17.13-9.92zm-1.38-.77-3.41-1.98v1.65l3.41 1.93v-1.6zm15.32 11.79-18.73-10.8v1.65l18.73 10.8v-1.65z"/><path class="cls-22" d="m602.58 652.83-8.15-4.74a.61.61 0 0 0-.84.17.66.66 0 0 0-.1.38v9.75a1.3 1.3 0 0 0 .72 1.16l8.15 4.74a.61.61 0 0 0 .82-.27.57.57 0 0 0 .06-.28V654a1.21 1.21 0 0 0-.66-1.17zm0 14.6-8.15-4.69a.61.61 0 0 0-.84.18.75.75 0 0 0-.1.32V673a1.3 1.3 0 0 0 .72 1.16l8.15 4.73a.6.6 0 0 0 .82-.26.58.58 0 0 0 .06-.29v-9.69a1.35 1.35 0 0 0-.66-1.22zm0 14.57-8.15-4.69a.61.61 0 0 0-.84.18.67.67 0 0 0-.1.32v9.8a1.43 1.43 0 0 0 .72 1.16l8.15 4.68a.54.54 0 0 0 .77-.1.5.5 0 0 0 .11-.39v-9.75a1.35 1.35 0 0 0-.66-1.21zm0 14.68-8.15-4.74a.61.61 0 0 0-.94.55v9.75a1.28 1.28 0 0 0 .72 1.16l8.15 4.74a.61.61 0 0 0 .82-.27.52.52 0 0 0 .06-.28v-9.75a1.21 1.21 0 0 0-.66-1.16zm0 14.6-8.15-4.68a.6.6 0 0 0-.84.17.75.75 0 0 0-.1.32v9.75a1.29 1.29 0 0 0 .72 1.16l8.15 4.74a.61.61 0 0 0 .82-.27.55.55 0 0 0 .06-.28v-9.92a1.29 1.29 0 0 0-.66-.99zm0 14.6-8.15-4.69a.61.61 0 0 0-.84.18.75.75 0 0 0-.1.32v9.81a1.43 1.43 0 0 0 .72 1.15l8.15 4.69a.61.61 0 0 0 .82-.27.46.46 0 0 0 .06-.23v-9.75a1.36 1.36 0 0 0-.66-1.21zm0 14.65-8.15-4.74a.61.61 0 0 0-.94.55v9.76a1.27 1.27 0 0 0 .72 1.15l8.15 4.74a.62.62 0 0 0 .82-.26.58.58 0 0 0 .06-.29v-9.75a1.22 1.22 0 0 0-.66-1.16zm0 14.6-8.15-4.74a.67.67 0 0 0-.88.32 1 1 0 0 0-.06.23v9.75a1.28 1.28 0 0 0 .72 1.16l8.15 4.74a.61.61 0 0 0 .82-.27.52.52 0 0 0 .06-.28v-9.7a1.32 1.32 0 0 0-.66-1.21zm0 14.6-8.15-4.68a.6.6 0 0 0-.84.17.75.75 0 0 0-.1.32v9.81a1.28 1.28 0 0 0 .72 1.1l8.15 4.74a.62.62 0 0 0 .82-.26.53.53 0 0 0 .06-.24v-9.75a1.37 1.37 0 0 0-.66-1.21zm0 14.65-8.15-4.73a.6.6 0 0 0-.84.17.62.62 0 0 0-.1.38v9.8a1.32 1.32 0 0 0 .72 1.15l8.15 4.69a.55.55 0 0 0 .77-.11.5.5 0 0 0 .11-.39v-9.75a1.22 1.22 0 0 0-.66-1.21zm0 14.62-8.15-4.74a.61.61 0 0 0-.84.18.62.62 0 0 0-.1.38v9.75a1.27 1.27 0 0 0 .72 1.15l8.15 4.74a.62.62 0 0 0 .82-.26.58.58 0 0 0 .06-.29v-9.48a1.31 1.31 0 0 0-.66-1.43zm0 14.58-8.15-4.68a.6.6 0 0 0-.84.18.67.67 0 0 0-.1.31v9.81a1.27 1.27 0 0 0 .72 1.1l8.15 4.74a.62.62 0 0 0 .82-.26.58.58 0 0 0 .06-.29v-9.7a1.37 1.37 0 0 0-.66-1.21z" transform="translate(-211.72 -214.2)"/><g class="cls-33"><path class="cls-34" d="M204.88 216.45v5.89l24.79 14.33v-5.9l-24.79-14.32zm0 10.8v5.89l24.79 14.27v-5.89l-24.79-14.27zm0 10.74v5.89l24.79 14.33v-5.9l-24.79-14.32zM391.86 362.5v-5.9l-152.88-88.15v5.9l152.88 88.15zM204.88 248.79v5.89l24.79 14.27v-5.89l-24.79-14.27zm0 10.74v5.95l24.79 14.27v-5.9l-24.79-14.32zm186.98 113.76v-5.89l-152.88-88.2v5.89l152.88 88.2zm-186.98-81.42v5.89l24.79 14.33v-5.9l-24.79-14.32zm0 10.8v5.89l24.79 14.27v-5.89l-24.79-14.27zm0 43.08v5.89l24.79 14.27v-5.89l-24.79-14.27zm0 10.74v5.89l24.79 14.33v-5.9l-24.79-14.32zm130.51 75.31-96.41-55.64v5.89l96.41 55.64v-5.89zm5.12 2.92v5.89l51.35 29.64v-5.89l-51.35-29.64zm-53.1-41.37-48.43-27.94v5.9l48.43 27.93v-5.89zm5.07 2.91v5.9l99.38 57.29v-5.89l-99.38-57.3zm86.32 17.47v5.89l13.06 7.55v-5.89l-13.06-7.55zm-71.17-51.79-68.65-39.66v5.89l68.65 39.67v-5.9zm-28.1-102.46-40.55-23.36v5.89l40.55 23.36v-5.89zm66.44 38.34-61.37-35.37v5.9l61.37 35.36v-5.89zm-35.76-9.86-43.24-24.9v5.89l43.24 24.9v-5.89zm45.34 26.17-40.27-23.2v5.9l40.27 23.19v-5.89zm5.07 2.92v5.89l31.24 18.01v-5.89l-31.24-18.01zm-113.65-54.76v5.89l32.56 18.79v-5.9l-32.56-18.78zm132.16 76.19-94.53-54.49v5.89l94.53 54.55v-5.95zm-54.15 1.15-61.76-35.64v5.89l61.76 35.65v-5.9zm54.15 31.18-49.03-28.26v5.9l49.03 28.26v-5.9zm-5.45 29.2-60.93-35.15v5.9l60.93 35.15v-5.9zm-33.17-8.37v5.89l33.17 19.17v-5.89l-33.17-19.17zm-89.57-51.68-11.96-6.88v5.89l11.96 6.89v-5.9zm22.36 12.95v5.89l62.09 35.81v-5.89l-62.09-35.81zm-5.06-2.98L256 342.88v5.9l12.24 7.05v-5.9zm55.69 42.92L256 353.68v5.89l67.93 39.17v-5.89z"/></g><g class="cls-33"><path class="cls-34" d="M774.24 490.41v5.9l24.79 14.27v-5.9l-24.79-14.27zm0 10.75v5.89l24.79 14.33v-5.96l-24.79-14.26zm0 10.79v5.9l24.79 14.27v-5.9l-24.79-14.27zm186.98 124.51v-5.9l-152.88-88.19v5.89l152.88 88.2zM774.24 522.7v5.89l24.79 14.33v-5.9l-24.79-14.32zm0 10.8v5.89l24.79 14.27v-5.9l-24.79-14.26zm186.98 113.7v-5.89l-152.88-88.15V559l152.88 88.2zm-186.98-81.42v5.95L799.03 586v-5.9l-24.79-14.32zm0 10.8v5.89l24.79 14.27v-5.9l-24.79-14.26zm0 43.08v5.89l24.79 14.33v-5.9l-24.79-14.32zm0 10.79v5.9l24.79 14.27v-5.9l-24.79-14.27zm130.56 75.26-96.46-55.64v5.95l96.46 55.58v-5.89zm5.07 2.92v5.95l51.35 29.58v-5.89l-51.35-29.64zm-53.05-41.38-48.48-27.93v5.9l48.48 27.93v-5.9zm5.07 2.98v5.84l99.33 57.35v-5.9l-99.33-57.29zm86.27 17.41v5.89l13.06 7.55v-5.9l-13.06-7.54zm-71.12-51.79-68.7-39.61v5.9l68.7 39.61v-5.9zm-28.15-102.41-40.55-23.41v5.89l40.55 23.42v-5.9zm66.49 38.34-61.42-35.42v5.89l61.42 35.43v-5.9zm-35.81-9.86-43.19-24.95v5.89l43.19 24.96v-5.9zm45.34 26.17-40.27-23.25v5.9l40.27 23.19v-5.84zm5.07 2.92v5.89l31.24 18.02v-5.9l-31.24-18.01zM816.33 536.2v5.89l32.56 18.79v-5.9l-32.56-18.78zm132.16 76.24-94.53-54.54v5.89l94.53 54.54v-5.89zm-54.1 1.1-61.81-35.64v5.89l61.81 35.65v-5.9zm54.1 31.18-49.03-28.26v5.9l49.03 28.31v-5.95zm-5.4 29.2-60.98-35.15v5.9l60.98 35.15v-5.9zm-33.22-8.37v5.89l33.22 19.17v-5.89l-33.22-19.17zm-89.58-51.68-11.95-6.88v5.89l11.95 6.89v-5.9zm22.37 12.95v5.89l62.14 35.81v-5.89l-62.14-35.81zm-5.07-2.92-12.23-7.05v5.89l12.23 7.05v-5.89zm55.7 42.86-67.93-39.17v5.89l67.93 39.17v-5.89z"/></g><g class="cls-33"><path class="cls-34" d="M621.59 157.06v5.9l24.79 14.27v-5.9l-24.79-14.27zm0 10.75v5.94l24.79 14.27v-5.89l-24.79-14.32zm0 10.79v5.9l24.79 14.32v-5.95l-24.79-14.27zm186.97 124.51v-5.9l-152.87-88.2v5.9l152.87 88.2zM621.59 189.4v5.89l24.79 14.27v-5.89l-24.79-14.27zm0 10.74v5.9l24.79 14.32v-5.95l-24.79-14.27zM808.56 313.9v-5.89l-152.87-88.2v5.9l152.87 88.19zm-186.97-81.42v5.9l24.79 14.26v-5.89l-24.79-14.27zm0 10.74v5.9l24.79 14.32v-5.89l-24.79-14.33zm0 43.14v5.89l24.79 14.27v-5.89l-24.79-14.27zm0 10.74v5.9l24.79 14.26v-5.89l-24.79-14.27zm130.5 75.31-96.4-55.64v5.89l96.4 55.65v-5.9zm5.13 2.92v5.9l51.34 29.63v-5.89l-51.34-29.64zm-53.11-41.37-48.42-27.99v5.9l48.42 27.98v-5.89zm5.12 2.92v5.89l99.33 57.3v-5.9l-99.33-57.29zm86.27 17.46v5.9l13.06 7.49v-5.9l-13.06-7.49zm-71.12-51.84-68.69-39.61v5.9l68.69 39.61v-5.9zm-28.15-102.41-40.54-23.36v5.9l40.54 23.35v-5.89zm66.44 38.34-61.37-35.42v5.89l61.37 35.43v-5.9zm-35.75-9.86-43.25-24.9v5.89l43.25 24.91v-5.9zm45.34 26.17-40.27-23.25v5.89l40.27 23.25v-5.89zm5.07 2.92v5.89l31.23 18.02v-5.9l-31.23-18.01zm-113.66-54.82v5.9l32.56 18.78v-5.89l-32.56-18.79zm132.17 76.25L701.3 224.6v5.9l94.54 54.48v-5.89zm-54.16 1.1-61.76-35.59v5.9l61.76 35.58v-5.89zm54.16 31.24-49.04-28.27v5.9l49.04 28.26v-5.89zm-5.46 29.19-60.93-35.14v5.89l60.93 35.15v-5.9zm-33.16-8.37v5.89l33.16 19.12v-5.89l-33.16-19.12zm-89.58-51.68-11.95-6.88v5.89l11.95 6.89v-5.9zm22.37 12.9v5.89l62.08 35.81v-5.9l-62.08-35.8zm-5.07-2.92-12.23-7.05v5.89l12.23 7.05v-5.89zm55.69 42.91-67.92-39.17v5.9l67.92 39.17v-5.9z"/></g><g class="cls-33"><path class="cls-34" d="M753.69 59.5 650.95 0v5.23l102.74 59.5V59.5zM650.95 15.48l157.61 91.18v-5.24L650.95 10.25v5.23zm109.63 47.87v5.24l47.98 27.82v-5.24l-47.98-27.82zm-6.89 16.15L650.95 20v5.23l102.74 59.5V79.5zM650.95 35.53l157.61 91.12v-5.23L650.95 30.3v5.23zm109.63 53.05 47.98 27.83v-5.24l-47.98-27.76v5.17zm-6.89 23.97-102.74-59.5v5.24l102.74 59.49v-5.23zM650.95 68.59l157.61 91.12v-5.24L650.95 63.35v5.24zm109.63 53.05 47.98 27.82v-5.23l-47.98-27.77v5.18zm-6.89 10.96L650.95 73.11v5.23l102.74 59.5v-5.24zM650.95 88.58l157.61 91.18v-5.23L650.95 83.35v5.23zm109.63 53.11 47.98 27.77v-5.18l-47.98-27.82v5.23zm-6.89 23.97-102.74-59.5v5.23l102.74 59.5v-5.23zm-102.74-44.02 157.61 91.17v-5.23l-157.61-91.17v5.23zm109.63 53.11 47.98 27.76v-5.23l-47.98-27.77v5.24zm-6.89 10.91-102.74-59.5v5.23l102.74 59.5v-5.23zm-102.74-44.02 157.61 91.17v-5.23L650.95 136.4v5.24zm109.63 53.1 47.98 27.82v-5.23l-47.98-27.82v5.23z"/></g><path d="m688.25 348.67-76.74-44.07a5.51 5.51 0 0 0-8.43 4.85v91.83a12.38 12.38 0 0 0 6.28 11l76.74 44.41a5.5 5.5 0 0 0 8.59-5v-92a13 13 0 0 0-6.44-11.02zm467.11 158.66-76.74-44.07A5.51 5.51 0 0 0 1071 465a5.4 5.4 0 0 0-.84 3.15V560a12.52 12.52 0 0 0 6.23 11l76.74 44.35a5.51 5.51 0 0 0 8.65-5v-91.83a13 13 0 0 0-6.42-11.19zm341.73 302.78L1420.34 766a5.5 5.5 0 0 0-8.42 4.85v91.89a12.31 12.31 0 0 0 6.28 11l76.68 44.41a5.51 5.51 0 0 0 8.65-5v-91.42a12.79 12.79 0 0 0-6.44-11.62zM829.12 584.07 752.37 540a5.51 5.51 0 0 0-8.37 4.91v91.83a12.56 12.56 0 0 0 6.23 11L827 692.11a5.51 5.51 0 0 0 8.65-5v-91.85a13 13 0 0 0-6.53-11.19zm431.02-254.24-76.74-44.07a5.51 5.51 0 0 0-8.43 4.85v91.67a12.36 12.36 0 0 0 6.28 11L1258 437.7a5.51 5.51 0 0 0 8.6-5v-91.46a12.8 12.8 0 0 0-6.46-11.41z" transform="translate(-211.72 -214.2)" style="opacity:.2;isolation:isolate;fill:#8f55a2"/><g class="cls-33"><path class="cls-34" d="M1001.98 121.2v5.89l24.79 14.27v-5.89l-24.79-14.27zm0 10.74v5.9l24.79 14.32v-5.9l-24.79-14.32zm0 10.8v5.89l24.79 14.27v-5.89l-24.79-14.27zm186.98 124.5v-5.89l-152.87-88.2v5.89l152.87 88.2zm-186.98-113.7v5.89l24.79 14.27v-5.89l-24.79-14.27zm0 10.74v5.89l24.79 14.33v-5.95l-24.79-14.27zm186.98 113.76v-5.89l-152.87-88.2v5.89l152.87 88.2zm-186.98-81.42v5.89l24.79 14.27v-5.89l-24.79-14.27zm0 10.74v5.89l24.79 14.33v-5.9l-24.79-14.32zm0 43.14v5.89l24.79 14.27v-5.9l-24.79-14.26zm0 10.74v5.89l24.79 14.33v-5.95l-24.79-14.27zm130.51 75.31-96.4-55.64v5.89l96.4 55.64v-5.89zm5.13 2.92v5.89l51.34 29.64v-5.89l-51.34-29.64zm-53.11-41.38-48.42-27.98V276l48.42 27.99v-5.9zm5.07 2.92v5.9l99.38 57.29v-5.89l-99.38-57.3zm86.32 17.41v5.95l13.06 7.49v-5.89l-13.06-7.55zm-71.12-51.78-68.69-39.61v5.89l68.69 39.61v-5.89zm-28.15-102.42-40.54-23.35v5.89l40.54 23.36v-5.9zm66.44 38.35-61.37-35.43v5.9l61.37 35.42v-5.89zm-35.75-9.86-43.25-24.9v5.89l43.25 24.9v-5.89zm45.34 26.16-40.28-23.24v5.89l40.28 23.25v-5.9zm5.06 2.92v5.9l31.24 18.01v-5.89l-31.24-18.02zm-113.7-54.81v5.89l32.61 18.79v-5.9l-32.61-18.78zm132.21 76.24-94.53-54.48v5.89l94.53 54.49v-5.9zm-54.15 1.11-61.76-35.65v5.9l61.76 35.64v-5.89zm54.15 31.23-49.03-28.31v5.89l49.03 28.32v-5.9zm-5.45 29.2-60.93-35.15v5.9l60.93 35.14v-5.89zm-33.16-8.37v5.89l33.16 19.12v-5.9l-33.16-19.11zm-89.58-51.68-11.95-6.89v5.9l11.95 6.89v-5.9zm22.37 12.89v5.9l62.08 35.86v-5.95l-62.08-35.81zm-5.07-2.92-12.23-7.05v5.9l12.23 7.05v-5.9zm55.69 42.92-67.92-39.17v5.89l67.92 39.17v-5.89z"/></g><path class="cls-12" d="M765.87 1092.39a33.07 33.07 0 0 0-30.35 4.63c-16.53 11-27.55 26.06-20.83 31.68s19.67 11.62 28.1 8.59 50.08-27.49 23.08-44.9z" transform="translate(-211.72 -214.2)"/><path class="cls-2" d="m900.73 813.9-129.8 73.55-82.74-47.87 129.79-73.49 82.75 47.81z"/><path style="fill:#f0cfc9" d="M796.33 885.69v2.86l129.79-74.31v-2.1l-129.79 73.55z"/><path style="fill:#fffbf1" d="m926.12 812.14-129.79 73.55-82.69-47.88 129.74-73.49 82.74 47.82z"/><path style="fill:#f5ddd7" d="M796.33 885.69v2.86l-82.69-47.87v-2.87l82.69 47.88z"/><path d="m842.5 772.15 49.96 28.81-2.14 1.27-50.03-28.82 2.21-1.26zm-5.18 2.97 49.96 28.81-2.2 1.22-49.96-28.82 2.2-1.21zm-12.07 6.83 68.81 39.72-2.2 1.21-68.81-39.72 2.2-1.21zm-4.79 2.7 68.81 39.72-2.15 1.21-68.86-39.72 2.2-1.21zm-4.74 2.7 68.81 39.72-2.2 1.21-68.81-39.72 2.2-1.21zm-4.79 2.7 68.81 39.72-2.15 1.21-68.81-39.72 2.15-1.21zm-4.74 2.7L875 832.47l-2.2 1.27-68.81-39.72 2.2-1.27zm-4.79 2.7 68.86 39.72-2.2 1.27-68.81-39.72 2.15-1.27zm-4.74 2.7 68.81 39.72-2.2 1.27-68.81-39.72 2.2-1.27zm-4.79 2.7 68.86 39.72-2.2 1.27-68.81-39.72 2.15-1.27zm-4.74 2.7 68.81 39.72-2.2 1.26-68.81-39.71 2.2-1.27zm-4.79 2.7 68.86 39.72-2.2 1.27-68.81-39.73 2.15-1.26zm-4.74 2.7 68.81 39.77-2.2 1.21-68.81-39.72 2.2-1.26zm-4.74 2.75 68.81 39.67-2.2 1.26-68.81-39.72 2.2-1.21zm-4.79 2.7 68.81 39.72-2.21 1.21-68.8-39.72 2.2-1.21zm-4.74 2.7 68.81 39.72-2.2 1.21-68.81-39.72 2.2-1.21zm-4.79 2.7 68.81 39.72-2.15 1.21-68.86-39.72 2.2-1.21z" style="fill:#dfbab8"/><path class="cls-9" d="M914.17 1070.91h-12.12V1084h12.12a8.2 8.2 0 0 1 8.21 8.21v21.26a8.21 8.21 0 0 1-8.21 8.16h-17.79v13.11h17.79a21.32 21.32 0 0 0 21.32-21.27v-21.1a21.36 21.36 0 0 0-21.26-21.48z" transform="translate(-211.72 -214.2)"/><path class="cls-3" d="M909.6 1063.69v73.71c0 11.46-17 20.72-38 20.72s-38.07-9.26-38.07-20.72v-73.71z" transform="translate(-211.72 -214.2)"/><path class="cls-8" d="M833.52 1063.69c0 11.4 17 20.72 38.07 20.72s38-9.32 38-20.72-17-20.88-38-20.88-38.07 9.48-38.07 20.88z" transform="translate(-211.72 -214.2)"/><path class="cls-9" d="M841.12 1063.42c0 9 13.61 16.19 30.47 16.19s30.46-7.21 30.46-16.19-13.66-16.15-30.46-16.15-30.47 7.22-30.47 16.15z" transform="translate(-211.72 -214.2)"/><path class="cls-7" d="M871.59 1057.85c-13.33 0-24.63 4.57-28.81 11 4.18 6.34 15.48 11 28.81 11s24.63-4.57 28.76-11c-4.13-6.43-15.43-11-28.76-11z" transform="translate(-211.72 -214.2)"/><path class="cls-9" d="M886 1082.86v73.71a40.65 40.65 0 0 0 17.9-8.26v-73.71a40.65 40.65 0 0 1-17.9 8.26z" transform="translate(-211.72 -214.2)"/><path class="cls-8" d="M544 476v-36.41l7.2 4.56A24.87 24.87 0 0 1 557 449a15.14 15.14 0 0 1 3 5.62 26.06 26.06 0 0 1 .87 7V475a16.38 16.38 0 0 1-.87 6.1 2.87 2.87 0 0 1-2.92 2q-2.06-.06-5.73-2.39zm6-1.37 1.27.81c1.12.71 1.91 1 2.38.86s.77-.59.89-1.37a20.86 20.86 0 0 0 .18-3.05v-15a19.08 19.08 0 0 0-.23-3.19 5.61 5.61 0 0 0-1-2.28 8.3 8.3 0 0 0-2.3-2l-1.24-.78zm23 20.3a18.27 18.27 0 0 1-5.13-4.69 17.21 17.21 0 0 1-2.7-5.84 27.53 27.53 0 0 1-.82-6.92V463.9a16.81 16.81 0 0 1 .82-5.87 3.19 3.19 0 0 1 2.7-2.33q1.89-.19 5.13 1.86a18.69 18.69 0 0 1 5.18 4.7 17 17 0 0 1 2.72 5.74 27.1 27.1 0 0 1 .82 6.88v13.62a17 17 0 0 1-.82 5.89 3.26 3.26 0 0 1-2.72 2.38c-1.28.16-3-.46-5.18-1.84zm0-5.35c.77.49 1.34.63 1.71.43a1.77 1.77 0 0 0 .72-1.3 12.47 12.47 0 0 0 .18-2.24v-17.22a16.56 16.56 0 0 0-.18-2.46 6.72 6.72 0 0 0-.72-2.19 5 5 0 0 0-1.71-1.73c-.73-.47-1.27-.59-1.64-.39a1.72 1.72 0 0 0-.72 1.27 11.27 11.27 0 0 0-.19 2.22v17.22a18.18 18.18 0 0 0 .17 2.47 6.19 6.19 0 0 0 .71 2.2 4.72 4.72 0 0 0 1.67 1.72zm12.61 12.85.51-36.1 6.36 4 3.63 25.28 3.89-20.47 6.14 3.9.51 36.74-4.36-2.78-.47-25-3.75 22.31-3.74-2.31-3.93-27.36-.4 24.61z" transform="translate(-211.72 -214.2)"/><path class="cls-16" d="M786.86 376.06v-8a16.3 16.3 0 0 0 2.73 1.29 2.21 2.21 0 0 0 1.72.08 2 2 0 0 0 .89-1.39 12.88 12.88 0 0 0 .28-3.08V322l9.18 5.17v43.45a22.85 22.85 0 0 1-.89 7.17 3.68 3.68 0 0 1-3.14 2.81q-2.25.25-6.32-2zm33.27 18.04A23.14 23.14 0 0 1 809 380.21a41.16 41.16 0 0 1-1.64-10.67l7.9 2.8a41.44 41.44 0 0 0 .58 6.07 13.36 13.36 0 0 0 1.45 4.26 6.48 6.48 0 0 0 2.42 2.5c1.19.67 2 .66 2.42 0a5.18 5.18 0 0 0 .64-2.8 16.57 16.57 0 0 0-1.36-6.66 57.74 57.74 0 0 0-3.59-6.8l-4.68-7.66A47 47 0 0 1 809 353a25.5 25.5 0 0 1-1.58-9q0-6.89 3.25-8.74t8.93 1.34a19.91 19.91 0 0 1 5.57 4.51 20.78 20.78 0 0 1 3.37 5.58 27.76 27.76 0 0 1 1.66 6 49.76 49.76 0 0 1 .59 5.73l-7.85-3q-.11-2.61-.36-4.68a11.22 11.22 0 0 0-1-3.59 5.37 5.37 0 0 0-2.25-2.37c-1.08-.61-1.88-.56-2.4.13a4.65 4.65 0 0 0-.78 2.84 13.65 13.65 0 0 0 1.09 5.46 46.56 46.56 0 0 0 3 5.64l4.56 7.52a66.2 66.2 0 0 1 4.87 9.66 28.55 28.55 0 0 1 2 10.75 11.84 11.84 0 0 1-1.45 6.28 5.34 5.34 0 0 1-4 2.68 10.11 10.11 0 0 1-6.09-1.64z" transform="translate(-211.72 -214.2)"/><path d="M1282.15 1118.1a8.19 8.19 0 0 1-3.4-2.79 2.18 2.18 0 0 1 .17-2.53 9.13 9.13 0 0 1 2.89-2.33l7.28-4.14a16.43 16.43 0 0 1 4.25-1.72 11.61 11.61 0 0 1 4.53-.14 16.3 16.3 0 0 1 5.09 1.83 9 9 0 0 1 3.34 2.62 2 2 0 0 1 0 2.3 7.15 7.15 0 0 1-2.46 2.08l-1.71 1-4.78-2.58 1.91-1.08a13.68 13.68 0 0 0 1.22-.79 1.06 1.06 0 0 0 .51-.84c0-.29-.34-.62-1-1a4 4 0 0 0-1.83-.55 4.14 4.14 0 0 0-1.61.28 11.9 11.9 0 0 0-1.53.74l-9.22 5.23a7.21 7.21 0 0 0-1.32.94.87.87 0 0 0-.35.89c.08.3.41.6 1 .91a3.68 3.68 0 0 0 1.75.52 4 4 0 0 0 1.54-.32 13.47 13.47 0 0 0 1.48-.72l2-1.13 4.78 2.59-1.68 1a13.78 13.78 0 0 1-3.74 1.46 11.14 11.14 0 0 1-4.21.11 15.33 15.33 0 0 1-4.9-1.84zm8.85 4.49 25-9 5.47 3-15.62 14-4.57-2.47 3.59-3-3.82-2.06-5.39 2zm13-.72 2.9 1.57 6.72-5.44zm4.11 9.96 20.27-11.51 3.44 1.85-5.19 8.91 10.57-6 4.06 2.2-20.26 11.51-3.29-1.77 5.84-9.28-11.21 6.37zm19.97 10.81 15.68-14 4.27 2.31-11.15 9.52 16.71-6.51 4.45 2.4-24.88 9zm10.13 5.47 25-9 5.47 2.95-15.62 14-4.57-2.47 3.59-3-3.82-2.07-5.38 2zm13-.72 2.9 1.57 6.72-5.44zm10.07 13.51a8.55 8.55 0 0 1-3-2.41 2.2 2.2 0 0 1-.18-2.4 7.43 7.43 0 0 1 2.66-2.49l4.85 2a9.31 9.31 0 0 0-1.78 1.36 1.31 1.31 0 0 0-.48 1.13 1.58 1.58 0 0 0 .89.94 3 3 0 0 0 1.8.41 3.89 3.89 0 0 0 1.49-.46c.85-.49 1.33-1 1.41-1.62a4.86 4.86 0 0 0-.18-2l-.68-2.4a4 4 0 0 1 0-2.41 4.2 4.2 0 0 1 2.11-2.14 9.8 9.8 0 0 1 5.59-1.23 14.6 14.6 0 0 1 6.13 1.83 7.37 7.37 0 0 1 2.48 1.9 2.06 2.06 0 0 1 .47 1.73 3.12 3.12 0 0 1-.93 1.53 11.3 11.3 0 0 1-1.65 1.28l-4.74-2a13.73 13.73 0 0 0 1.44-1 1.28 1.28 0 0 0 .56-.91c0-.3-.27-.59-.81-.88a3.08 3.08 0 0 0-1.82-.39 3.77 3.77 0 0 0-1.61.45c-.72.4-1.11.84-1.18 1.31a4.17 4.17 0 0 0 .16 1.69l.64 2.34a5.53 5.53 0 0 1 .1 2.85 4.49 4.49 0 0 1-2.4 2.57 8.79 8.79 0 0 1-3.36 1 12.92 12.92 0 0 1-4-.14 13.6 13.6 0 0 1-3.98-1.44z" transform="translate(-211.72 -214.2)" style="fill:#2b3891"/></svg>