<svg version="1.1" id="Layer_1" xmlns="http://www.w3.org/2000/svg" x="0" y="0" viewBox="0 0 820.4 820.4" style="enable-background:new 0 0 820.4 820.4" xml:space="preserve"><style>.st1{fill:#1c299c}</style><circle cx="410.2" cy="410.2" r="410.2" style="fill:#e6e7e8" id="Layer_3"/><path class="st1" d="M558.7 404.8c49-44 53.1-119.4 9.1-168.4-40.4-45-108.1-52.6-157.5-17.8-53.8-38-128.3-25.1-166.2 28.8-34.8 49.4-27.2 117 17.7 157.4-55.9 29.4-90.7 87.5-90.5 150.6v51.2c0 9.4 7.6 17.1 17.1 17.1H632c9.4 0 17.1-7.6 17.1-17v-51.2c.3-63.2-34.6-121.3-90.4-150.7zm-80.3-173.7c47.1 0 85.3 38.1 85.3 85.1 0 33.6-19.6 64-50.2 77.8-1.3.6-2.6 1.1-4 1.7-4.2 1.7-8.6 3-13 4-.8.2-1.7.3-2.6.5-4.9.9-10 1.5-15 1.5-2.3 0-4.5-.2-6.8-.4-.9 0-1.7 0-2.6-.2-9.7-1.1-19.1-3.9-27.8-8.2-.3-.2-.7-.1-1-.3-1.7-.8-3.4-1.5-4.9-2.5.1-.2.2-.4.3-.5 7.8-10.1 14-21.3 18.3-33.3l.5-1.4c1.9-5.7 3.5-11.6 4.5-17.6.2-.9.3-1.7.4-2.6 2.1-12.1 2.1-24.5 0-36.7-.1-.9-.3-1.7-.4-2.6-1.1-6-2.6-11.8-4.5-17.6l-.5-1.4c-4.3-12-10.5-23.2-18.3-33.3-.1-.2-.2-.4-.3-.5 12.9-7.5 27.7-11.5 42.6-11.5zm-221.8 85.3c-.1-47 37.9-85.2 84.9-85.3 22-.1 43.2 8.4 59.1 23.7 1 1 2 1.9 2.9 2.9 2.9 3.1 5.6 6.3 8.1 9.8.8 1.1 1.4 2.2 2.1 3.3 2.4 3.7 4.5 7.5 6.3 11.5.4 1 .8 2 1.1 2.9 1.8 4.4 3.2 9 4.2 13.6l.3 1.5c2.2 10.6 2.2 21.5 0 32.1-.1.5-.1 1-.3 1.5-1 4.7-2.4 9.3-4.2 13.7-.4 1-.7 2-1.1 2.9-1.8 4-3.9 7.8-6.3 11.5l-2.1 3.3c-2.5 3.5-5.2 6.7-8.1 9.8-1 1-1.9 2-2.9 2.9-6.9 6.6-14.9 12-23.6 15.9-1.4.6-2.8 1.2-4.2 1.7-4.1 1.6-8.4 2.9-12.7 3.9l-3.3.6c-4.6.9-9.3 1.3-14 1.4h-1.9c-4.7-.1-9.4-.6-14-1.4-1.1-.2-2.2-.3-3.3-.6-4.3-1-8.6-2.3-12.7-3.9-1.4-.6-2.8-1.1-4.2-1.7-30.4-13.6-50.1-44-50.1-77.5zm221.8 273.1h-273v-34.1c-.2-57.8 36.2-109.4 90.8-128.6a119.2 119.2 0 0 0 91.6 0c5.7 2.1 11.3 4.5 16.6 7.4 3.5 1.8 6.8 3.9 10.2 6 2.2 1.4 4.5 2.7 6.6 4.3 3.3 2.3 6.4 4.9 9.5 7.5 2 1.7 3.9 3.4 5.8 5.1 2.8 2.7 5.5 5.5 8 8.4 1.8 2.1 3.6 4.2 5.3 6.4 2.2 2.9 4.4 5.8 6.3 8.8 1.7 2.6 3.2 5.2 4.7 7.9 1.7 2.9 3.3 5.9 4.7 8.9s2.7 6.4 3.9 9.7c1.1 2.8 2.2 5.6 3.1 8.5 1.2 4 2 8.1 2.9 12.2.5 2.4 1.2 4.8 1.5 7.3 1 6.8 1.5 13.6 1.5 20.4v33.9zm136.6 0H512.6v-34.1c0-5.3-.3-10.6-.8-15.9-.1-1.5-.4-3.1-.5-4.6-.5-3.8-1-7.5-1.7-11.2-.3-1.6-.6-3.2-1-4.8-.8-3.8-1.8-7.6-2.8-11.3-.4-1.2-.7-2.5-1.1-3.7-4.8-15.3-11.7-29.8-20.5-43.2l-.7-1c-2.9-4.4-6.1-8.6-9.4-12.7l-.1-.2c-3.4-4.3-7.1-8.4-11-12.2h.7c4.8.6 9.7 1 14.5 1h.9c4.5 0 9-.3 13.5-.9 1.4-.2 2.8-.4 4.2-.7 3.6-.5 7.2-1.3 10.8-2.2 1-.3 2-.5 3.1-.8 4.6-1.3 9.2-2.8 13.7-4.6 54.6 19.1 91.1 70.8 90.8 128.6l-.2 34.5z"/><path class="st1" d="M735.8 339.1h-40.3c-1.3 0-2.4-1.1-2.4-2.4v-40.3c.2-6.5-5-12-11.5-12.2-6.5-.2-12 5-12.2 11.5v41c0 1.3-1.1 2.4-2.4 2.4h-40.3c-6.5 0-11.8 5.3-11.8 11.8 0 6.5 5.3 11.8 11.8 11.8H667c1.3 0 2.4 1.1 2.4 2.4v40.3c-.2 6.5 5 12 11.5 12.2 6.5.2 12-5 12.2-11.5v-41c0-1.3 1.1-2.3 2.4-2.3h40.3c6.5 0 11.8-5.3 11.8-11.8 0-6.6-5.3-11.9-11.8-11.9z"/></svg>