<svg xmlns="http://www.w3.org/2000/svg" viewBox="0 0 512 512" style="enable-background:new 0 0 512 512" xml:space="preserve"><path d="M433.6 74.4C385.6 26.4 321.8 0 254 0S122.4 26.4 74.4 74.4 0 186.2 0 254s26.4 131.6 74.4 179.6S186.2 508 254 508s131.6-26.4 179.6-74.4S508 321.8 508 254s-26.4-131.6-74.4-179.6zM127.3 438.9C138 377.8 191 332.6 254 332.6s116 45.1 126.7 106.3c-36.1 24.8-79.7 39.3-126.7 39.3s-90.6-14.5-126.7-39.3zm45.9-216.8c0-44.5 36.2-80.8 80.8-80.8s80.8 36.2 80.8 80.8-36.2 80.8-80.8 80.8-80.8-36.2-80.8-80.8zm233.2 196.2c-8-28.5-23.9-54.3-46.2-74.5-13.7-12.4-29.3-22.2-46-29 30.3-19.7 50.3-53.9 50.3-92.6 0-60.9-49.6-110.5-110.5-110.5s-110.5 49.6-110.5 110.5c0 38.7 20 72.9 50.3 92.6-16.7 6.9-32.3 16.7-46 29-22.3 20.2-38.2 46-46.2 74.5-44.1-41-71.8-99.5-71.8-164.3C29.8 130.4 130.4 29.8 254 29.8S478.2 130.4 478.2 254c0 64.8-27.6 123.3-71.8 164.3z" style="fill:#1c299c"/></svg>